<?xml version="1.0" standalone="no"?>
<!DOCTYPE svg PUBLIC "-//W3C//DTD SVG 20010904//EN"
 "http://www.w3.org/TR/2001/REC-SVG-20010904/DTD/svg10.dtd">
<svg version="1.0" xmlns="http://www.w3.org/2000/svg"
 width="512.000000pt" height="512.000000pt" viewBox="0 0 512.000000 512.000000"
 preserveAspectRatio="xMidYMid meet">
<metadata>
Created by potrace 1.11, written by Peter Selinger 2001-2013
</metadata>
<g transform="translate(0.000000,512.000000) scale(0.100000,-0.100000)"
fill="#000000" stroke="none">
<path d="M1866 4438 c-47 -62 -163 -215 -258 -340 -816 -1070 -897 -1178 -891
-1194 4 -12 95 -14 609 -14 476 0 604 -3 605 -12 1 -7 3 -168 4 -358 1 -190 3
-351 4 -357 2 -23 31 -14 32 10 0 12 1 178 1 369 l1 348 251 2 c215 3 251 5
251 18 0 13 -34 15 -240 16 -132 1 -245 2 -251 3 -7 1 -10 239 -10 799 1 438
0 803 -2 810 -2 6 -8 12 -12 12 -4 0 -46 -51 -94 -112z m69 -743 c0 -421 -2
-766 -5 -766 -12 -3 -1160 -4 -1160 -1 0 4 169 228 526 699 126 165 319 420
429 566 110 146 202 266 205 266 3 1 5 -343 5 -764z"/>
<path d="M4200 4544 c-9 -3 -22 -15 -29 -27 -13 -19 -419 -577 -556 -762 -28
-38 -166 -227 -307 -420 -140 -192 -348 -478 -463 -635 -114 -157 -287 -393
-383 -525 -97 -132 -205 -280 -242 -330 -36 -49 -112 -153 -168 -230 -56 -77
-221 -303 -367 -503 -220 -302 -261 -363 -241 -360 19 2 102 110 396 513 603
826 750 1027 797 1090 24 33 135 184 245 335 110 151 245 336 299 410 54 74
164 225 245 335 80 110 175 241 211 290 37 50 79 108 95 130 16 22 61 83 99
135 172 234 394 541 397 550 4 10 -1 11 -28 4z"/>
<path d="M3721 3090 c-31 -41 -59 -79 -64 -85 -33 -44 -415 -559 -533 -720
-284 -388 -369 -584 -359 -830 10 -268 118 -479 307 -598 132 -83 237 -108
433 -103 235 6 386 66 530 211 141 140 206 312 199 525 -11 395 -288 671 -680
679 -265 6 -489 -98 -648 -299 -75 -95 112 207 216 348 23 31 99 134 168 227
405 545 530 715 530 717 0 2 -10 4 -21 4 -15 0 -39 -23 -78 -76z m-51 -965
c123 -21 253 -88 342 -176 117 -117 179 -281 180 -479 1 -199 -62 -362 -185
-484 -82 -82 -149 -123 -259 -160 -152 -51 -360 -56 -493 -11 -223 76 -366
231 -426 463 -25 97 -30 233 -12 320 45 216 226 414 455 498 94 35 285 49 398
29z"/>
</g>
</svg>
